<svg width="328" height="262" viewBox="0 0 328 262" fill="none" xmlns="http://www.w3.org/2000/svg">
<g clip-path="url(#clip0_1_47)">
<path d="M144.5 262C201.938 262 248.5 215.438 248.5 158C248.5 100.562 201.938 54 144.5 54C87.0624 54 40.5 100.562 40.5 158C40.5 215.438 87.0624 262 144.5 262Z" fill="#F22539" stroke="black" stroke-width="2"/>
</g>
<mask id="mask0_1_47" style="mask-type:alpha" maskUnits="userSpaceOnUse" x="0" y="0" width="328" height="262">
<path fill-rule="evenodd" clip-rule="evenodd" d="M237.069 204.349L281.759 256.044H327.876V0H0V226.299H66.716C85.5981 248.12 113.495 261.925 144.616 261.925C185.194 261.925 220.29 238.455 237.069 204.349Z" fill="#C4C4C4"/>
</mask>
<g mask="url(#mask0_1_47)">
<path d="M210.144 125.626C210.144 125.626 239.085 130.28 260.828 137.281C282.57 144.276 301.538 156.16 301.538 156.16C301.538 156.16 299.795 195.44 286.492 220.45C270.885 209.971 232.339 188.96 213.806 182.422C218.575 192.088 226.029 211.154 230.005 228.667C220.499 228.514 207.768 230.904 207.768 230.904L190.058 170.702L210.144 125.626Z" fill="#F8CC46"/>
<path d="M255.776 173.558C270.667 190.564 281.944 209.328 287.29 218.891C287.027 219.419 286.763 219.94 286.486 220.456C270.879 209.978 232.333 188.966 213.801 182.428C218.569 192.094 226.023 211.16 229.999 228.674C220.493 228.52 207.762 230.91 207.762 230.91L190.052 170.708L207.867 130.731C213.858 135.061 237.505 152.689 255.776 173.558Z" fill="#ECA539"/>
<path d="M210.144 125.626C210.144 125.626 239.085 130.28 260.828 137.281C282.57 144.276 301.538 156.16 301.538 156.16C301.538 156.16 299.795 195.44 286.492 220.45C270.885 209.971 232.339 188.96 213.806 182.422C218.575 192.088 226.029 211.154 230.005 228.667C220.499 228.514 207.768 230.904 207.768 230.904L190.058 170.702L210.144 125.626Z" stroke="#333333" stroke-width="2" stroke-miterlimit="10" stroke-linecap="round" stroke-linejoin="round"/>
<path d="M202.5 181.738C202.5 181.738 202.048 195.734 204.002 207.11C205.956 218.486 208.97 229.831 216.624 241.959C224.278 254.08 228.748 259.762 228.985 267.348C232.491 264.459 236.764 262.152 238.331 263.58C239.899 265.007 239.214 266.82 239.214 266.82C239.214 266.82 240.983 265.532 241.876 266.552C242.77 267.572 243.139 269.672 242.421 271.963C243.666 271.762 244.227 273.443 242.957 277.299C241.687 281.155 237.248 292.065 225.829 303.593C214.41 315.122 203.762 323.251 197.237 319.709C194.969 318.428 195.138 315.323 195.138 315.323C195.138 315.323 193.857 315.927 189.586 315.171C185.315 314.415 164.927 308.298 151.591 307.82C138.256 307.341 120.073 307.426 100.865 313.797C101.019 316.077 99.9816 321.495 91.2175 317.779C82.4538 314.063 71.1155 306.643 61.1949 293.691C51.2743 280.738 49.1534 272.233 50.5666 271.374C51.2685 270.866 52.4698 271.424 52.4698 271.424C52.4698 271.424 50.2045 265.824 51.7355 264.878C53.2664 263.931 55.3461 266.176 55.3461 266.176C55.3461 266.176 55.0376 264.304 56.1761 263.797C57.3146 263.289 59.0897 263.7 62.2386 265.882C62.1474 262.207 62.2264 257.519 67.1934 251.04C72.1604 244.561 76.0279 242.688 80.1637 241.847C81.8735 235.759 82.8663 232.483 83.3922 228.841C83.3922 228.841 74.1213 223.984 62.5786 209.058C51.0358 194.131 43.8684 181.06 41.0447 173.494C38.2272 165.927 36.5076 161.161 35.6857 160.349C34.8632 159.532 33.8221 158.051 33.9657 157.403C34.1093 156.754 36.0015 157.198 36.145 156.549C36.2886 155.901 34.874 153.348 35.32 152.561C35.7661 151.774 38.0729 152.126 38.2531 151.841C38.4333 151.557 37.6107 149.103 38.0732 148.48C38.535 147.85 41.0035 148.236 41.4761 147.713C41.9486 147.19 40.6297 144.519 41.3496 143.813C42.0694 143.106 47.4925 144.622 47.9979 144.362C48.497 144.102 48.7676 141.006 49.5957 140.872C50.4238 140.738 67.0499 148.203 76.0669 152.927C85.084 157.651 202.5 181.738 202.5 181.738Z" fill="#F8CC46" stroke="#333333" stroke-width="1.2" stroke-miterlimit="10" stroke-linecap="round" stroke-linejoin="round"/>
<path d="M84.589 220.482C84.589 220.482 72.6423 218.399 59.1183 204.471C65.2775 212.424 73.1139 222.961 82.7605 228.472C83.6004 225.121 84.589 220.482 84.589 220.482Z" fill="#ECA539"/>
<path d="M202.5 181.738C202.5 181.738 202.048 195.734 204.002 207.11C205.956 218.486 208.97 229.831 216.624 241.959C224.278 254.08 228.748 259.762 228.985 267.348C232.491 264.459 236.764 262.152 238.331 263.58C239.899 265.007 239.214 266.82 239.214 266.82C239.214 266.82 240.983 265.532 241.876 266.552C242.77 267.572 243.139 269.672 242.421 271.963C243.666 271.762 244.227 273.443 242.957 277.299C241.687 281.155 237.248 292.065 225.829 303.593C214.41 315.122 203.762 323.251 197.237 319.709C194.969 318.428 195.138 315.323 195.138 315.323C195.138 315.323 193.857 315.927 189.586 315.171C185.315 314.415 164.927 308.298 151.591 307.82C138.256 307.341 120.073 307.426 100.865 313.797C101.019 316.077 99.9816 321.495 91.2175 317.779C82.4538 314.063 71.1155 306.643 61.1949 293.691C51.2743 280.738 49.1534 272.233 50.5666 271.374C51.2684 270.866 52.4698 271.424 52.4698 271.424C52.4698 271.424 50.2045 265.824 51.7355 264.878C53.2664 263.931 55.3461 266.176 55.3461 266.176C55.3461 266.176 55.0376 264.304 56.1761 263.797C57.3146 263.289 59.0897 263.7 62.2386 265.882C62.1474 262.207 62.2264 257.519 67.1934 251.04C72.1605 244.561 76.0279 242.688 80.1637 241.847C81.8735 235.759 82.8663 232.483 83.3922 228.841C83.3922 228.841 74.1213 223.984 62.5786 209.058C51.0358 194.131 43.8684 181.06 41.0447 173.494C38.2272 165.927 36.5076 161.161 35.6857 160.349C34.8632 159.532 33.8221 158.051 33.9657 157.403C34.1093 156.754 36.0015 157.198 36.145 156.549C36.2886 155.901 34.874 153.348 35.32 152.561C35.7661 151.774 38.0729 152.126 38.2531 151.841C38.4333 151.557 37.6107 149.103 38.0732 148.48C38.535 147.85 41.0035 148.236 41.4761 147.713C41.9486 147.19 40.6297 144.519 41.3496 143.813C42.0694 143.106 47.4925 144.622 47.9979 144.362C48.4969 144.102 48.7676 141.006 49.5957 140.872C50.4238 140.738 67.0499 148.203 76.0669 152.927C85.084 157.651 202.5 181.738 202.5 181.738Z" stroke="#333333" stroke-width="2" stroke-miterlimit="10" stroke-linecap="round" stroke-linejoin="round"/>
<path d="M204.935 180.777C215.059 169.771 213.472 163.431 211.507 153.325C209.541 143.218 211.648 134.288 211.876 125.546C212.104 116.804 211.329 108.588 209.115 103.313C255.403 118.948 289.239 103.072 301.199 96.1628C241.74 58.5988 190.221 83.1778 190.221 83.1778C190.221 83.1778 168.547 64.2738 130.104 70.5183C146.459 56.9839 165.905 40.6528 175.482 3.7613C154.147 7.6003 105.344 31.9504 94.0676 87.6178C91.5004 91.4708 87.4965 93.5608 85.7119 107.272C83.9273 120.983 80.977 134.114 77.3341 141.931C73.6912 149.748 70.7218 161.619 90.6393 183.503C104.56 198.164 110.199 201.827 110.199 201.827" fill="#F8CC46"/>
<path d="M149.112 133.76C149.105 134.629 148.366 135.775 146.496 135.684C144.627 135.593 143.913 133.966 144.349 133.205C144.785 132.445 149.127 132.332 149.112 133.76Z" fill="#333333"/>
<path d="M180.968 124.932C174.988 127.69 174.287 137.893 178.206 142.255C182.124 146.616 189.932 147.175 193.969 143.282C198.007 139.388 198.548 130.615 193.533 126.363C188.518 122.112 183.387 123.814 180.968 124.932Z" fill="#333333"/>
<path d="M181.392 125.561C180.249 126.145 178.035 129.545 179.786 131.988C181.538 134.43 184.81 134.374 186.474 133.179C188.138 131.985 188.745 129.026 187.23 126.921C185.715 124.816 182.933 124.772 181.392 125.561Z" fill="white"/>
<path d="M113.594 116.622C110.664 114.222 103.414 113.417 98.7646 118.589C94.1156 123.762 95.2476 131.308 99.9046 134.644C104.562 137.98 113.36 135.244 115.394 130.867C117.434 126.483 117.214 119.587 113.594 116.622Z" fill="#333333"/>
<path d="M113.126 118.001C111.611 116.91 108.633 116.988 107.369 118.58C106.105 120.171 106.189 123.771 108.024 125.096C109.86 126.42 113.124 125.851 114.264 124.227C115.404 122.603 115.301 119.564 113.126 118.001Z" fill="white"/>
<path d="M175.482 3.7607C172.303 16.0079 168.03 25.981 163.151 34.3472C161.055 32.2562 155.848 31.759 141.293 33.9395C128.458 35.8582 115.291 45.4829 109.395 50.2737C128.928 20.6495 159.708 6.5964 175.482 3.7607Z" fill="#333333"/>
<path d="M301.199 96.1678C291.368 101.849 266.752 113.583 232.594 108.896C238.377 107.578 249.502 104.38 258.134 97.9118C268.318 90.2738 270.943 84.671 269.757 81.309C279.802 84.5473 290.368 89.3248 301.199 96.1678Z" fill="#333333"/>
<path d="M102.388 81.0686C102.388 81.0686 102.227 81.1101 101.954 81.2263C101.673 81.3243 101.293 81.5084 100.841 81.7314C100.397 81.9727 99.8726 82.2409 99.3516 82.5977C98.8226 82.9362 98.2806 83.3269 97.7456 83.7421C97.4816 83.9462 97.2116 84.1509 96.9526 84.3482C96.6956 84.5579 96.4516 84.7727 96.2196 84.98C95.7486 85.3951 95.3066 85.7819 94.9576 86.1468C94.2516 86.8646 93.7946 87.3548 93.7946 87.3548C93.6516 87.5078 93.6626 87.7478 93.8106 87.8918C93.9496 88.0238 94.1716 88.0268 94.3116 87.9048L94.3286 87.8908C94.3286 87.8908 94.8296 87.4598 95.5536 86.797C95.7396 86.6324 95.9226 86.4365 96.1386 86.2562C96.3546 86.076 96.5816 85.8819 96.8146 85.681C97.0486 85.4863 97.2926 85.2715 97.5306 85.0573C97.7816 84.8545 98.0326 84.6453 98.2906 84.4418C98.7926 84.0173 99.3236 83.6341 99.8106 83.2554C100.291 82.8711 100.764 82.5444 101.144 82.2273C101.545 81.9396 101.874 81.6846 102.103 81.5094C102.338 81.3335 102.467 81.2318 102.467 81.2318C102.509 81.2023 102.515 81.1382 102.485 81.0968C102.47 81.073 102.431 81.0579 102.388 81.0686Z" fill="#333333" stroke="#333333"/>
<path d="M163.37 156.739C163.37 156.739 161.02 166.411 155.503 176.794C149.986 187.178 144.772 192.775 140.794 192.541C136.816 192.307 130.458 182.56 128.627 168.318C126.802 154.076 127.024 152.386 127.024 152.386C127.024 152.386 132.6 152.776 137.197 150.487C141.795 148.199 145.192 145.042 151.575 149.498C157.945 153.955 159.729 156.712 163.37 156.739Z" fill="#6C4C59" stroke="#333333" stroke-width="1.2" stroke-miterlimit="10" stroke-linecap="round" stroke-linejoin="round"/>
<path d="M128.566 167.842C130.823 164.736 135.681 159.948 143.961 160.358C153.321 160.818 156.945 168.101 158.122 171.432C157.34 173.165 156.471 174.965 155.503 176.793C149.98 187.178 144.772 192.774 140.794 192.54C136.816 192.306 130.458 182.559 128.627 168.317C128.604 168.155 128.589 168.004 128.566 167.842Z" fill="#F26981" stroke="#333333" stroke-width="1.2" stroke-miterlimit="10" stroke-linecap="round" stroke-linejoin="round"/>
<path d="M168.484 155.064C168.484 155.064 168.407 155.11 168.275 155.18C168.149 155.256 167.955 155.339 167.725 155.445C167.496 155.557 167.221 155.654 166.929 155.766C166.628 155.853 166.325 155.992 165.995 156.044C165.834 156.079 165.673 156.114 165.513 156.156C165.359 156.203 165.195 156.207 165.046 156.228C164.896 156.25 164.745 156.258 164.608 156.285C164.472 156.317 164.34 156.318 164.213 156.318C163.726 156.323 163.395 156.362 163.395 156.362L163.332 156.369C163.126 156.39 162.98 156.575 163.001 156.783C163.019 156.965 163.166 157.102 163.338 157.116C163.338 157.116 163.702 157.15 164.253 157.151C164.527 157.174 164.843 157.105 165.185 157.045C165.352 157.009 165.528 156.998 165.699 156.936C165.871 156.887 166.043 156.832 166.214 156.77C166.564 156.671 166.874 156.475 167.183 156.343C167.333 156.264 167.469 156.168 167.6 156.085C167.731 156.002 167.856 155.926 167.962 155.846C168.18 155.685 168.349 155.541 168.464 155.428C168.58 155.321 168.637 155.258 168.637 155.258L168.642 155.251C168.687 155.196 168.68 155.121 168.625 155.075C168.59 155.041 168.526 155.041 168.484 155.064Z" fill="#333333"/>
<path d="M121.713 149.725C121.713 149.725 121.753 149.803 121.863 149.951C121.966 150.099 122.118 150.287 122.311 150.508C122.404 150.619 122.529 150.721 122.648 150.842C122.773 150.95 122.895 151.09 123.045 151.195C123.344 151.406 123.648 151.661 124.001 151.835C124.338 152.042 124.697 152.209 125.044 152.326C125.215 152.391 125.38 152.457 125.543 152.51C125.701 152.571 125.861 152.586 126.004 152.623C126.585 152.735 126.969 152.779 126.969 152.779C127.173 152.803 127.361 152.651 127.384 152.446C127.404 152.266 127.293 152.106 127.135 152.046L127.083 152.026C127.083 152.026 126.742 151.908 126.222 151.77C126.091 151.732 125.95 151.715 125.811 151.646C125.672 151.584 125.521 151.536 125.363 151.476C125.205 151.416 125.042 151.369 124.883 151.296C124.73 151.216 124.57 151.137 124.404 151.065C124.069 150.934 123.776 150.729 123.487 150.561C123.333 150.482 123.209 150.38 123.081 150.298C122.958 150.209 122.824 150.133 122.727 150.048C122.514 149.879 122.329 149.746 122.218 149.643C122.1 149.547 122.03 149.478 122.03 149.478C121.952 149.397 121.826 149.397 121.745 149.475C121.682 149.538 121.672 149.628 121.705 149.707L121.713 149.725Z" fill="#333333"/>
<path d="M200.611 151.939C205.159 151.114 209.951 154.849 212.196 156.912C213.687 165.069 213.81 171.131 204.935 180.781C203.418 182.43 201.991 183.905 200.62 185.248C186.825 184.169 185.944 171.943 187.476 164.465C189.066 156.69 194.396 153.065 200.611 151.939Z" fill="#F22539" stroke="#333333" stroke-width="1.2" stroke-miterlimit="10" stroke-linecap="round" stroke-linejoin="round"/>
<path d="M75.7503 145.941C78.5989 142.997 84.485 139.742 91.0522 143.888C99.4976 149.221 100.667 162.42 96.5346 169.335C93.4376 174.523 86.756 175.03 83.6106 174.959C73.7647 161.429 73.7213 152.442 75.7503 145.941Z" fill="#F22539" stroke="#333333" stroke-width="1.2" stroke-miterlimit="10" stroke-linecap="round" stroke-linejoin="round"/>
<path d="M150.594 209.07C150.562 210.767 143.819 215.25 136.737 215.112C129.656 214.981 124.353 210.442 124.412 208.952C124.471 207.462 131.334 208.573 136.646 208.989C141.96 209.413 150.63 207.165 150.594 209.07Z" fill="#ECA539"/>
<path d="M83.7519 228.893C83.7519 228.893 84.0594 227.169 84.5209 224.586C84.7128 223.286 84.8939 221.752 85.1094 220.12C85.3054 218.483 85.4588 216.737 85.619 214.996C85.7405 213.246 85.8876 211.501 85.9821 209.861C86.0767 208.222 86.1437 206.687 86.1571 205.373C86.1705 204.059 86.174 202.962 86.1477 202.197C86.134 201.432 86.1023 200.991 86.1023 200.991C86.101 200.915 86.032 200.858 85.9631 200.865C85.8942 200.872 85.8423 200.922 85.8361 200.986C85.8361 200.986 85.7913 201.422 85.7036 202.185C85.6158 202.948 85.5353 204.035 85.4072 205.341C85.3043 206.645 85.1727 208.167 85.0649 209.801C84.9572 211.436 84.797 213.176 84.6618 214.915C84.5722 215.786 84.4884 216.651 84.4032 217.503C84.3181 218.355 84.258 219.204 84.1621 220.013C83.9711 221.636 83.7937 223.144 83.6394 224.44C83.2681 227.04 83.0182 228.77 83.0182 228.77C82.9883 228.976 83.1282 229.172 83.3337 229.202C83.5266 229.233 83.7214 229.093 83.7519 228.893Z" fill="#333333" stroke="#333333"/>
<path d="M96.1216 242.791C96.1216 242.791 95.8996 242.661 95.4886 242.474C95.0776 242.294 94.4946 242.029 93.7616 241.786C93.0336 241.535 92.1666 241.28 91.2224 241.077C90.7512 240.985 90.2593 240.876 89.7594 240.812C89.2575 240.729 88.745 240.667 88.2345 240.623C87.7226 240.567 87.2039 240.568 86.6959 240.55C86.1865 240.518 85.6848 240.562 85.2043 240.566C84.7169 240.565 84.2565 240.643 83.8112 240.681C83.3658 240.72 82.9555 240.793 82.5703 240.863C82.1914 240.933 81.8362 240.988 81.5344 241.069C81.2262 241.15 80.9613 241.221 80.7458 241.281C80.3087 241.401 80.0625 241.47 80.0625 241.47C79.8596 241.529 79.7476 241.737 79.7991 241.934C79.85 242.126 80.0456 242.246 80.2372 242.201L80.2685 242.198C80.2685 242.198 80.5103 242.148 80.9375 242.054C81.1479 242.008 81.4079 241.95 81.7047 241.882C82.0023 241.821 82.3461 241.78 82.7132 241.717C83.0802 241.655 83.4786 241.59 83.9121 241.559C84.3387 241.522 84.7878 241.458 85.2551 241.449C85.7218 241.434 86.2041 241.385 86.699 241.399C87.1933 241.406 87.6926 241.4 88.19 241.439C88.6918 241.458 89.1886 241.491 89.6754 241.55C90.1666 241.589 90.6427 241.668 91.1114 241.735C92.038 241.889 92.9086 242.049 93.6366 242.242C95.1086 242.601 96.0496 242.963 96.0496 242.963C96.1026 242.983 96.1566 242.959 96.1766 242.906C96.1796 242.868 96.1616 242.812 96.1216 242.791Z" fill="#333333" stroke="#333333"/>
<path d="M143.961 160.36C153.321 160.82 156.945 168.102 158.122 171.434C157.961 171.792 157.79 172.158 157.618 172.53C155.959 170.313 151.403 165.343 143.907 165.362C135.664 165.379 131.462 166.499 128.849 169.901C128.765 169.383 128.693 168.858 128.621 168.326C128.598 168.163 128.583 168.006 128.56 167.85C130.823 164.744 135.681 159.95 143.961 160.36Z" fill="#B94966"/>
<path d="M128.566 167.842C130.823 164.736 135.681 159.948 143.961 160.358C153.321 160.818 156.945 168.101 158.122 171.432C157.34 173.165 156.471 174.965 155.503 176.793C149.98 187.178 144.772 192.774 140.794 192.54C136.816 192.306 130.458 182.559 128.627 168.317C128.604 168.155 128.589 168.004 128.566 167.842Z" stroke="#333333" stroke-width="1.2" stroke-miterlimit="10" stroke-linecap="round" stroke-linejoin="round"/>
<path d="M232.594 108.897C232.594 108.897 211.491 102.282 205.861 97.6988C207.91 100.898 208.96 102.968 208.96 102.968C208.96 102.968 224.203 108.327 232.594 108.897Z" fill="#ECA539"/>
<path d="M209.459 103.152C209.459 103.152 209.184 102.494 208.745 101.524C208.645 101.281 208.486 101.024 208.332 100.754C208.178 100.484 208.017 100.196 207.847 99.8958C207.508 99.2958 207.078 98.7298 206.682 98.1228C206.487 97.8198 206.262 97.5378 206.045 97.2618C205.827 96.9858 205.61 96.7098 205.4 96.4518C204.962 95.9378 204.554 95.4648 204.174 95.0848C203.806 94.6908 203.478 94.3878 203.248 94.1758C203.017 93.9578 202.873 93.8518 202.873 93.8518C202.826 93.8188 202.763 93.8248 202.723 93.8668C202.695 93.9018 202.694 93.9588 202.723 93.9938C202.723 93.9938 203.142 94.5668 203.766 95.4298C204.087 95.8538 204.418 96.3788 204.819 96.9028C205.005 97.1758 205.198 97.4608 205.391 97.7458C205.579 98.0378 205.803 98.3128 205.984 98.6118C206.354 99.2088 206.767 99.7888 207.071 100.361C207.239 100.642 207.399 100.911 207.551 101.169C207.704 101.426 207.854 101.658 207.967 101.907C208.449 102.86 208.79 103.485 208.79 103.485C208.891 103.672 209.119 103.737 209.305 103.636C209.46 103.538 209.528 103.329 209.459 103.152Z" fill="#333333" stroke="#333333"/>
<path d="M153.417 48.2881C153.417 48.2881 134.485 65.081 119.819 73.2586C127.024 71.1071 130.098 70.5253 130.098 70.5253C130.098 70.5253 149.462 54.5133 153.417 48.2881Z" fill="#ECA539"/>
<path d="M175.515 202.263C177.682 201.158 179.848 200.052 181.991 198.892C184.141 197.75 186.259 196.535 188.346 195.272C190.433 194.003 192.45 192.608 194.382 191.114C196.306 189.608 198.142 187.984 199.901 186.291C201.647 184.581 203.344 182.832 204.992 181.036C206.64 179.241 208.215 177.351 209.558 175.295C210.895 173.239 211.999 171.004 212.606 168.609C213.239 166.219 213.303 163.707 213.07 161.27C212.843 158.82 212.355 156.422 211.893 154.033C211.419 151.646 211.108 149.249 211.004 146.824C210.769 141.972 211.268 137.121 211.716 132.27C211.941 129.844 212.125 127.403 212.177 124.957C212.229 122.516 212.216 120.064 212.097 117.622C211.972 115.18 211.745 112.736 211.356 110.315C210.948 107.896 210.389 105.485 209.449 103.183L208.981 103.687L211.824 104.593L213.243 105.046L214.676 105.454L217.548 106.268L220.442 106.985C221.404 107.237 222.38 107.444 223.35 107.65C224.326 107.85 225.292 108.083 226.271 108.257L229.209 108.78C230.189 108.96 231.175 109.076 232.158 109.225L233.635 109.438L235.119 109.605C236.111 109.709 237.099 109.844 238.087 109.916L241.065 110.149L244.047 110.293C245.04 110.351 246.038 110.34 247.034 110.36L248.529 110.381L250.019 110.352C252.011 110.335 254 110.23 255.981 110.107L258.955 109.865L261.922 109.541L264.88 109.13L267.823 108.637L270.752 108.07L273.667 107.421L276.562 106.693C277.521 106.419 278.483 106.164 279.435 105.878C287.086 103.567 294.482 100.477 301.383 96.4918C301.563 96.3908 301.628 96.1568 301.521 95.9768C301.49 95.9228 301.441 95.8768 301.394 95.8438C299.335 94.5608 297.26 93.3048 295.146 92.1098C294.087 91.5188 293.033 90.9148 291.958 90.3568C290.888 89.7798 289.813 89.2218 288.728 88.6838C286.567 87.5888 284.358 86.5746 282.145 85.586C279.917 84.6307 277.678 83.6955 275.398 82.8595C266.312 79.4552 256.841 77.0787 247.215 75.8655C237.595 74.6392 227.825 74.5755 218.186 75.6845C213.37 76.2386 208.584 77.0941 203.872 78.2465C201.52 78.8318 199.182 79.4856 196.872 80.2378C194.563 80.9964 192.284 81.8089 190.046 82.8267L190.456 82.8806C189.413 82.0152 188.337 81.2548 187.232 80.5163C186.127 79.784 184.988 79.0995 183.841 78.4477C182.693 77.7896 181.518 77.1848 180.327 76.6008C179.142 76.0161 177.93 75.4786 176.714 74.9605C175.492 74.4493 174.26 73.9707 173.02 73.5248C171.773 73.0858 170.522 72.66 169.251 72.2869C168.623 72.0837 167.985 71.9132 167.342 71.7433C166.705 71.5728 166.066 71.3897 165.425 71.2449L163.494 70.7924L161.549 70.3919C160.903 70.254 160.248 70.1614 159.597 70.0429C158.947 69.9308 158.296 69.8187 157.643 69.7386L155.68 69.4731L153.711 69.2716C152.4 69.1309 151.077 69.0673 149.759 68.978C148.439 68.9458 147.12 68.8565 145.801 68.8815L143.82 68.8841L141.84 68.9501C140.521 68.9813 139.204 69.0948 137.884 69.1832C136.563 69.2652 135.26 69.4534 133.944 69.5794C132.631 69.7431 131.33 69.9501 130.026 70.132L130.327 70.7992C135.614 66.4312 140.882 62.0016 145.766 57.1478C146.992 55.9401 148.183 54.6979 149.36 53.4445C150.524 52.1797 151.673 50.8974 152.788 49.5868C155.017 46.9594 157.121 44.2303 159.083 41.4015C161.044 38.5727 162.87 35.6435 164.541 32.6346L165.774 30.3609L166.947 28.0616C167.696 26.5089 168.438 24.9567 169.127 23.3783C169.485 22.594 169.803 21.7948 170.135 21.0005C170.472 20.2056 170.791 19.4064 171.096 18.6021C171.732 17.0035 172.296 15.3742 172.873 13.75C173.404 12.1113 173.962 10.4826 174.434 8.8245C174.946 7.1814 175.372 5.5089 175.832 3.852C175.888 3.6499 175.772 3.4459 175.57 3.3901C175.512 3.3769 175.455 3.37 175.405 3.3814L175.399 3.382C170.305 4.3255 165.389 5.9613 160.61 7.8941C155.839 9.845 151.219 12.155 146.766 14.7525C137.86 19.9411 129.622 26.2927 122.382 33.6409C118.765 37.3147 115.388 41.2307 112.326 45.3877C109.263 49.5384 106.482 53.9081 104.068 58.4691C99.2006 67.5761 95.7296 77.4177 93.6856 87.5408L93.7416 87.4078C92.9986 88.5098 92.0948 89.5268 91.2487 90.6138C90.3957 91.6948 89.6135 92.8518 88.9649 94.0778C87.6419 96.5248 86.8415 99.1988 86.2253 101.88C85.616 104.567 85.2836 107.301 84.9023 109.99C84.5154 112.686 84.0709 115.375 83.5875 118.055C82.6145 123.416 81.429 128.741 79.8514 133.941C79.0559 136.538 78.1496 139.103 77.0365 141.561C75.8751 144.043 74.92 146.688 74.5199 149.442C74.1068 152.191 74.2449 155.012 74.7896 157.722C75.3411 160.437 76.2872 163.05 77.4556 165.545C78.6178 168.04 80.0266 170.41 81.5469 172.692C83.0735 174.973 84.724 177.166 86.4672 179.273C87.3388 180.327 88.2229 181.38 89.1352 182.397C89.5979 182.909 90.0287 183.417 90.5171 183.933L91.9428 185.4L94.7886 188.341C95.7406 189.317 96.7226 190.271 97.6986 191.232C98.6686 192.193 99.6496 193.141 100.661 194.066C101.665 194.992 102.641 195.947 103.685 196.831C105.727 198.642 107.834 200.396 110.108 201.936C110.169 201.975 110.25 201.96 110.288 201.899C110.326 201.838 110.312 201.764 110.257 201.718L110.25 201.713C109.71 201.317 109.174 200.889 108.655 200.453C108.131 200.017 107.612 199.581 107.11 199.118C106.078 198.233 105.081 197.312 104.082 196.379C103.079 195.465 102.104 194.511 101.117 193.57C100.125 192.636 99.1616 191.681 98.2036 190.712C97.2456 189.749 96.2646 188.801 95.3126 187.826L92.4666 184.884L91.0467 183.41C90.5933 182.929 90.1419 182.404 89.693 181.904C88.7876 180.892 87.911 179.851 87.0519 178.796C85.3225 176.7 83.6927 174.524 82.1875 172.266C80.6885 170.007 79.3015 167.667 78.1626 165.214C77.018 162.767 76.0964 160.209 75.565 157.568C75.0405 154.932 74.9061 152.212 75.31 149.559C75.7007 146.901 76.6152 144.355 77.7728 141.899C78.9128 139.394 79.8285 136.797 80.6409 134.179C82.2392 128.932 83.4415 123.586 84.4252 118.205C84.9198 115.511 85.3512 112.818 85.7362 110.103C86.1094 107.396 86.4324 104.694 87.021 102.054C87.6166 99.4188 88.3913 96.8048 89.6599 94.4448C90.281 93.2608 91.0294 92.1448 91.8592 91.0848C92.6826 90.0198 93.5906 88.9898 94.3726 87.8268C94.3996 87.7858 94.4146 87.7468 94.4296 87.7008L94.4286 87.6938C96.4616 77.6422 99.9076 67.8728 104.737 58.8267C107.135 54.299 109.901 49.9626 112.941 45.8395C115.98 41.7101 119.336 37.828 122.929 34.1756C130.123 26.8764 138.309 20.5681 147.155 15.4109C151.578 12.8354 156.169 10.5411 160.909 8.5996C165.644 6.6775 170.531 5.0574 175.543 4.1284L175.11 3.6583C174.656 5.3083 174.228 6.9683 173.722 8.6044C173.249 10.25 172.697 11.8717 172.171 13.5035C171.599 15.1146 171.041 16.737 170.403 18.323C170.105 19.1266 169.786 19.9196 169.447 20.7082C169.115 21.4962 168.803 22.2948 168.445 23.0728C167.762 24.6443 167.025 26.1896 166.281 27.7291L165.113 30.0153L163.89 32.2688C162.23 35.2576 160.421 38.1661 158.47 40.9748C156.519 43.7836 154.432 46.4982 152.22 49.1049C151.111 50.4086 149.974 51.6833 148.816 52.9412C147.645 54.1877 146.459 55.423 145.245 56.6231C140.39 61.4487 135.145 65.8632 129.852 70.2256C129.688 70.3563 129.668 70.5992 129.804 70.7567C129.89 70.8622 130.021 70.9061 130.147 70.8935L130.153 70.8928C131.451 70.7116 132.746 70.5052 134.046 70.3428C135.349 70.218 136.647 70.0305 137.955 69.9496C139.261 69.8563 140.566 69.744 141.873 69.7141L143.833 69.6437L145.795 69.643C147.102 69.6193 148.415 69.7092 149.721 69.7364C151.027 69.8269 152.336 69.8855 153.635 70.0275L155.592 70.2302L157.536 70.4976C158.183 70.5783 158.833 70.6842 159.477 70.8032C160.122 70.9223 160.77 71.0093 161.41 71.1478L163.336 71.5439L165.247 71.9921C165.888 72.1368 166.514 72.3149 167.145 72.4861C167.776 72.6572 168.407 72.8284 169.034 73.0253C170.292 73.3933 171.53 73.8141 172.763 74.2481C173.997 74.6883 175.216 75.1682 176.424 75.6681C177.627 76.1811 178.82 76.7143 179.998 77.2933C181.17 77.873 182.337 78.4721 183.472 79.1189C184.606 79.7658 185.731 80.439 186.816 81.1605C187.901 81.8821 188.977 82.6425 189.958 83.4633C190.076 83.5656 190.235 83.5812 190.368 83.5172C192.535 82.5383 194.818 81.7126 197.104 80.9691C199.395 80.225 201.715 79.5732 204.055 78.9954C208.735 77.8461 213.484 76.9944 218.276 76.4491C227.852 75.3464 237.558 75.4101 247.121 76.6296C256.684 77.8428 266.102 80.1992 275.136 83.5834C277.402 84.4144 279.628 85.3446 281.843 86.2949C284.049 87.2778 286.238 88.2818 288.392 89.3708C289.47 89.9028 290.545 90.4608 291.602 91.0328C292.671 91.5918 293.718 92.1898 294.777 92.7748C296.876 93.9588 298.944 95.2088 300.99 96.4868L301.001 95.8388C294.153 99.7868 286.806 102.86 279.238 105.117C278.292 105.403 277.337 105.657 276.383 105.924L273.508 106.651L270.612 107.298L267.701 107.863L264.776 108.347L261.837 108.757L258.889 109.079L255.933 109.319C253.958 109.442 251.989 109.551 250.01 109.566L248.526 109.595L247.043 109.573C246.054 109.552 245.068 109.562 244.081 109.503L241.119 109.363L238.16 109.135C237.172 109.063 236.196 108.926 235.212 108.829L233.741 108.666L232.27 108.453C231.293 108.304 230.307 108.187 229.34 108.012L226.422 107.494C225.449 107.319 224.484 107.093 223.514 106.892C222.545 106.691 221.581 106.484 220.62 106.232L217.739 105.52L214.886 104.71L213.459 104.302L212.047 103.848L209.223 102.946C209.02 102.884 208.81 102.994 208.747 103.19C208.718 103.276 208.727 103.364 208.754 103.443V103.45C209.679 105.658 210.246 108.024 210.669 110.403C211.067 112.792 211.316 115.208 211.459 117.629C211.595 120.056 211.63 122.481 211.584 124.915C211.543 127.341 211.363 129.762 211.146 132.194C210.709 137.038 210.22 141.925 210.472 146.827C210.586 149.276 210.914 151.722 211.395 154.109C211.863 156.497 212.35 158.889 212.585 161.294C212.815 163.699 212.757 166.14 212.149 168.471C211.562 170.807 210.492 173.001 209.177 175.029C207.856 177.058 206.317 178.931 204.669 180.72C202.999 182.486 201.322 184.246 199.531 185.885C197.741 187.523 195.893 189.091 193.951 190.542C192.023 192.004 190.013 193.354 187.953 194.633C185.9 195.924 183.786 197.119 181.689 198.345C179.577 199.553 177.465 200.767 175.368 201.993C175.296 202.032 175.273 202.123 175.318 202.188C175.364 202.272 175.449 202.295 175.515 202.263Z" fill="#333333" stroke="#333333"/>
<path d="M113.387 76.1823C113.387 76.1823 114.415 75.7745 115.954 75.1569C116.336 74.9979 116.765 74.8596 117.203 74.6824C117.648 74.5109 118.111 74.3375 118.592 74.1496C119.081 73.9799 119.583 73.809 120.096 73.6242C120.602 73.4338 121.121 73.2485 121.65 73.0938C122.177 72.9267 122.699 72.7664 123.214 72.6067C123.728 72.4345 124.247 72.3126 124.74 72.1743C125.239 72.0416 125.719 71.9109 126.175 71.7889C126.631 71.6607 127.063 71.5538 127.467 71.4815C129.078 71.1419 130.154 70.9005 130.154 70.9005L130.185 70.891C130.389 70.8451 130.514 70.6423 130.468 70.4377C130.423 70.2393 130.234 70.1189 130.04 70.1447C130.04 70.1447 128.938 70.319 127.284 70.6121C126.867 70.6794 126.428 70.7806 125.967 70.9095C125.504 71.0258 125.01 71.1515 124.505 71.2848C123.999 71.4118 123.468 71.5413 122.955 71.7323C122.435 71.9052 121.902 72.0793 121.376 72.259C120.842 72.4268 120.324 72.6247 119.806 72.8227C119.294 73.0137 118.79 73.2229 118.31 73.4171C117.831 73.6301 117.371 73.8349 116.935 74.0309C116.499 74.2206 116.089 74.4267 115.723 74.6221C115.35 74.8181 115.013 74.9915 114.713 75.1548C114.42 75.3238 114.164 75.4764 113.954 75.5989C113.53 75.8445 113.305 76.0003 113.306 76.0066C113.258 76.0367 113.246 76.1014 113.276 76.1491C113.291 76.1792 113.343 76.193 113.387 76.1823Z" fill="#333333" stroke="#333333"/>
<path d="M185.406 262.726C185.406 262.726 203.651 258.164 199.538 245.578C195.376 253.017 192.723 256.777 185.406 262.726Z" fill="#ECA539"/>
<path d="M162.068 216.076C162.068 216.076 161.97 216.175 161.775 216.372C161.579 216.563 161.298 216.857 160.939 217.249C160.207 218.02 159.172 219.176 157.915 220.711C156.644 222.227 155.192 224.149 153.617 226.419C152.048 228.688 150.364 231.318 148.714 234.293C147.065 237.268 145.417 240.578 144.059 244.247C143.748 245.179 143.437 246.117 143.115 247.069C142.813 248.025 142.543 248.99 142.256 249.977C141.701 251.941 141.157 253.955 140.656 256.022C140.154 258.083 139.684 260.197 139.299 262.354C138.935 264.521 138.586 266.712 138.648 269.027C138.688 269.612 138.715 270.193 138.99 270.85C139.318 271.724 140.423 271.822 141.04 271.608C141.365 271.505 141.653 271.343 141.871 271.245C141.972 271.184 142.099 271.184 141.971 271.178C141.958 271.167 141.881 271.162 141.852 271.127C141.818 271.105 141.798 271.094 141.789 271.063C141.724 270.924 141.781 271.051 141.773 271.033L141.791 271.082C141.807 271.119 141.817 271.149 141.811 271.156L141.854 271.463L141.902 271.87L141.986 272.711C142.05 273.282 142.127 273.857 142.281 274.451C142.356 274.748 142.462 275.048 142.606 275.35C142.781 275.643 142.961 275.98 143.368 276.193L143.436 276.237C143.456 276.248 143.548 276.289 143.528 276.278L143.627 276.313C143.692 276.338 143.752 276.364 143.862 276.384C144.076 276.439 144.248 276.447 144.425 276.448C144.773 276.445 145.095 276.374 145.396 276.293C145.981 276.127 146.519 275.876 146.914 275.843C147.102 275.83 147.169 275.861 147.268 275.966C147.353 276.052 147.471 276.288 147.558 276.52C147.739 277.002 147.846 277.556 148.115 278.157C148.187 278.308 148.266 278.465 148.396 278.629C148.468 278.711 148.526 278.788 148.635 278.865L148.71 278.921C148.771 278.953 148.685 278.924 148.858 279.002L148.956 279.036C148.976 279.04 148.982 279.046 149.009 279.056L149.131 279.075C149.214 279.086 149.297 279.09 149.379 279.089C149.491 279.071 149.603 279.047 149.701 279.018C149.884 278.955 150.041 278.876 150.178 278.793C150.715 278.466 151.155 278.06 151.534 277.87C151.612 277.824 151.695 277.828 151.618 277.823C151.611 277.818 151.574 277.822 151.559 277.804L151.503 277.746L151.539 277.787C151.615 277.855 151.583 277.852 151.583 277.852C151.645 277.967 151.704 278.233 151.749 278.495C151.796 278.769 151.838 279.069 151.954 279.4C152.062 279.719 152.312 280.132 152.737 280.323C152.875 280.379 152.802 280.349 152.848 280.363L152.9 280.377C152.945 280.385 152.946 280.397 153.023 280.409C153.152 280.428 153.318 280.443 153.404 280.421C153.617 280.4 153.795 280.338 153.952 280.271C154.267 280.131 154.517 279.967 154.749 279.823C154.981 279.673 155.207 279.536 155.384 279.467C155.469 279.434 155.538 279.427 155.551 279.432L155.557 279.431C155.538 279.427 155.609 279.445 155.517 279.41L155.61 279.451C155.683 279.482 155.633 279.487 155.658 279.491C155.93 279.742 156.198 280.261 156.487 280.745C156.638 280.99 156.79 281.247 157.058 281.518C157.197 281.644 157.378 281.803 157.704 281.84C157.755 281.842 157.887 281.835 157.967 281.814C158.035 281.794 158.071 281.778 158.12 281.76C158.212 281.726 158.284 281.687 158.356 281.654C158.908 281.351 159.33 281.024 159.785 280.699C160.226 280.369 160.662 280.046 161.097 279.717C162.833 278.42 164.568 277.174 166.412 276.253C168.309 275.295 170.176 274.422 171.917 273.302C172.793 272.764 173.679 272.263 174.516 271.709C175.331 271.133 176.141 270.569 176.939 270.007C177.729 269.44 178.537 268.914 179.282 268.332C180.02 267.738 180.739 267.152 181.453 266.579C182.862 265.423 184.298 264.347 185.523 263.19C188.064 260.962 190.26 258.706 192.098 256.657C193.913 254.572 195.426 252.695 196.511 251.026C196.792 250.617 197.051 250.23 197.299 249.862C197.526 249.484 197.737 249.127 197.938 248.796C198.333 248.135 198.663 247.569 198.893 247.089C199.367 246.141 199.619 245.634 199.619 245.634C199.641 245.594 199.623 245.545 199.583 245.524C199.543 245.502 199.5 245.519 199.472 245.554L199.467 245.561C199.467 245.561 199.173 246.04 198.625 246.945C198.367 247.402 197.998 247.94 197.561 248.568C197.346 248.881 197.12 249.221 196.872 249.588C196.61 249.938 196.331 250.308 196.036 250.706C195.74 251.097 195.434 251.515 195.097 251.942C194.753 252.357 194.392 252.799 194.014 253.255C193.292 254.19 192.405 255.123 191.509 256.152C189.621 258.142 187.509 260.352 184.948 262.569C183.71 263.727 182.315 264.762 180.899 265.912C180.19 266.478 179.47 267.058 178.739 267.645C177.999 268.22 177.196 268.732 176.418 269.292C175.625 269.841 174.827 270.404 174.017 270.967C173.192 271.507 172.323 271.993 171.465 272.517C169.777 273.6 167.873 274.483 165.993 275.426C164.046 276.39 162.276 277.665 160.521 278.957C159.654 279.59 158.759 280.314 157.903 280.799C157.855 280.823 157.8 280.848 157.764 280.864L157.722 280.881C157.739 280.867 157.804 280.879 157.785 280.887C157.832 280.908 157.773 280.889 157.717 280.831C157.591 280.71 157.448 280.49 157.318 280.268C157.032 279.815 156.835 279.296 156.295 278.773C156.205 278.7 156.056 278.601 156.003 278.581L155.911 278.539C155.785 278.489 155.819 278.511 155.767 278.497L155.671 278.481C155.407 278.444 155.198 278.503 155.027 278.565C154.686 278.694 154.444 278.865 154.199 279.01C153.749 279.321 153.258 279.535 153.134 279.434C153.041 279.386 152.962 279.293 152.885 279.091C152.814 278.889 152.775 278.633 152.728 278.352C152.674 278.066 152.651 277.77 152.453 277.378C152.383 277.252 152.282 277.129 152.248 277.107L152.213 277.066C152.115 276.975 152.117 277 152.063 276.961C151.983 276.918 151.889 276.87 151.812 276.859C151.735 276.848 151.653 276.843 151.57 276.845C151.495 276.847 151.446 276.864 151.384 276.877C151.254 276.903 151.182 276.948 151.091 276.982C150.472 277.311 150.086 277.692 149.649 277.939C149.548 278 149.451 278.041 149.366 278.075C149.329 278.085 149.297 278.089 149.273 278.097C149.285 278.09 149.298 278.095 149.311 278.1C149.318 278.106 149.325 278.111 149.326 278.117C149.319 278.118 149.293 278.108 149.28 278.103C149.23 278.108 149.122 277.979 149.024 277.761C148.829 277.33 148.715 276.765 148.505 276.19C148.387 275.897 148.288 275.603 147.988 275.265C147.904 275.179 147.786 275.076 147.746 275.055L147.657 274.994C147.537 274.924 147.578 274.958 147.531 274.931L147.452 274.901C147.234 274.815 147.013 274.812 146.824 274.824C146.093 274.911 145.6 275.176 145.101 275.308C144.855 275.378 144.625 275.42 144.411 275.429C144.303 275.427 144.201 275.418 144.137 275.405C144.111 275.408 144.039 275.383 143.974 275.358L143.875 275.324C143.888 275.329 143.823 275.304 143.875 275.324L143.855 275.307C143.622 275.197 143.389 274.701 143.27 274.212C143.137 273.711 143.064 273.173 143.002 272.622L142.912 271.787L142.862 271.355C142.841 271.205 142.827 271.067 142.765 270.832C142.753 270.77 142.737 270.733 142.728 270.709L142.71 270.66C142.686 270.612 142.74 270.701 142.647 270.539C142.588 270.457 142.531 270.386 142.442 270.319C142.347 270.259 142.214 270.196 142.132 270.192C141.724 270.163 141.578 270.292 141.432 270.345C141.148 270.481 140.945 270.597 140.736 270.662C140.547 270.732 140.332 270.728 140.221 270.701C140.209 270.709 140.13 270.672 140.07 270.646L139.978 270.605C140.051 270.642 139.997 270.609 140.017 270.62C140.003 270.609 139.953 270.55 139.919 270.459C139.755 270.088 139.699 269.53 139.666 269.013C139.602 266.876 139.932 264.681 140.288 262.559C140.656 260.429 141.116 258.335 141.613 256.287C142.109 254.24 142.641 252.234 143.191 250.276C143.466 249.303 143.735 248.325 144.032 247.382C144.343 246.444 144.649 245.519 144.949 244.608C146.275 240.993 147.894 237.717 149.515 234.77C151.142 231.823 152.797 229.209 154.348 226.954C155.878 224.682 157.292 222.758 158.455 221.17C159.624 219.588 160.577 218.369 161.221 217.531C161.871 216.705 162.225 216.257 162.225 216.257C162.264 216.208 162.258 216.139 162.209 216.1C162.171 216.034 162.108 216.04 162.068 216.076Z" fill="#333333"/>
<path d="M143.875 275.324L143.974 275.358C144.039 275.383 144.111 275.408 144.137 275.405C144.201 275.418 144.303 275.427 144.411 275.429C144.625 275.42 144.855 275.378 145.101 275.308C145.6 275.176 146.093 274.911 146.824 274.824C147.013 274.812 147.234 274.815 147.452 274.901L147.531 274.931C147.578 274.958 147.537 274.924 147.657 274.994L147.746 275.055C147.786 275.076 147.904 275.179 147.988 275.265C148.288 275.603 148.387 275.897 148.505 276.19C148.715 276.765 148.829 277.33 149.024 277.761C149.122 277.979 149.23 278.108 149.28 278.103C149.293 278.108 149.319 278.118 149.326 278.117C149.325 278.111 149.318 278.106 149.311 278.1C149.298 278.095 149.285 278.09 149.273 278.097C149.297 278.089 149.329 278.085 149.366 278.075C149.451 278.041 149.548 278 149.649 277.939C150.086 277.692 150.472 277.311 151.091 276.982C151.182 276.948 151.254 276.903 151.384 276.877C151.446 276.864 151.495 276.847 151.57 276.845C151.653 276.843 151.735 276.848 151.812 276.859C151.889 276.87 151.983 276.918 152.063 276.961C152.117 277 152.115 276.975 152.213 277.066L152.248 277.107C152.282 277.129 152.383 277.252 152.453 277.378C152.651 277.77 152.674 278.066 152.728 278.352C152.775 278.633 152.814 278.889 152.885 279.091C152.962 279.293 153.041 279.386 153.134 279.434C153.258 279.535 153.749 279.321 154.199 279.01C154.444 278.865 154.686 278.694 155.027 278.565C155.198 278.503 155.407 278.444 155.671 278.481L155.767 278.497C155.819 278.511 155.785 278.489 155.911 278.539L156.003 278.581C156.056 278.601 156.205 278.7 156.295 278.773C156.835 279.296 157.032 279.815 157.318 280.268C157.448 280.49 157.591 280.71 157.717 280.831C157.773 280.889 157.832 280.908 157.785 280.887C157.804 280.879 157.739 280.867 157.722 280.881L157.764 280.864C157.8 280.848 157.855 280.823 157.903 280.799C158.759 280.314 159.654 279.59 160.521 278.957C162.276 277.665 164.046 276.39 165.993 275.426C167.873 274.483 169.777 273.6 171.465 272.517C172.323 271.993 173.192 271.507 174.017 270.967C174.827 270.404 175.625 269.841 176.418 269.292C177.196 268.732 177.999 268.22 178.739 267.645C179.47 267.058 180.19 266.478 180.899 265.912C182.315 264.762 183.71 263.727 184.948 262.569C187.509 260.352 189.621 258.142 191.509 256.152C192.405 255.123 193.292 254.19 194.014 253.255C194.392 252.799 194.753 252.357 195.097 251.942C195.434 251.515 195.74 251.097 196.036 250.706C196.331 250.308 196.61 249.938 196.872 249.588C197.12 249.221 197.346 248.881 197.561 248.568C197.998 247.94 198.367 247.402 198.625 246.945C199.173 246.04 199.467 245.561 199.467 245.561L199.472 245.554C199.5 245.519 199.543 245.502 199.583 245.524C199.623 245.545 199.641 245.594 199.619 245.634C199.619 245.634 199.367 246.141 198.893 247.089C198.663 247.569 198.333 248.135 197.938 248.796C197.737 249.127 197.526 249.484 197.299 249.862C197.051 250.23 196.792 250.617 196.511 251.026C195.426 252.695 193.913 254.572 192.098 256.657C190.26 258.706 188.064 260.962 185.523 263.19C184.298 264.347 182.862 265.423 181.453 266.579C180.739 267.152 180.02 267.738 179.282 268.332C178.537 268.914 177.729 269.44 176.939 270.007C176.141 270.569 175.331 271.133 174.516 271.709C173.679 272.263 172.793 272.764 171.917 273.302C170.176 274.422 168.309 275.295 166.412 276.253C164.568 277.174 162.833 278.42 161.097 279.717C160.662 280.046 160.226 280.369 159.785 280.699C159.33 281.024 158.908 281.351 158.356 281.654C158.284 281.687 158.212 281.726 158.12 281.76C158.071 281.778 158.035 281.794 157.967 281.814C157.887 281.835 157.755 281.842 157.704 281.84C157.378 281.803 157.197 281.644 157.058 281.518C156.79 281.247 156.638 280.99 156.487 280.745C156.198 280.261 155.93 279.742 155.658 279.491C155.633 279.487 155.683 279.482 155.61 279.451L155.517 279.41C155.609 279.445 155.538 279.427 155.557 279.431L155.551 279.432C155.538 279.427 155.469 279.434 155.384 279.467C155.207 279.536 154.981 279.673 154.749 279.823C154.517 279.967 154.267 280.131 153.952 280.271C153.795 280.338 153.617 280.4 153.404 280.421C153.318 280.443 153.152 280.428 153.023 280.409C152.946 280.397 152.945 280.385 152.9 280.377L152.848 280.363C152.802 280.349 152.875 280.379 152.737 280.323C152.312 280.132 152.062 279.719 151.954 279.4C151.838 279.069 151.796 278.769 151.749 278.495C151.704 278.233 151.645 277.967 151.583 277.852C151.583 277.852 151.615 277.855 151.539 277.787L151.503 277.746L151.559 277.804C151.574 277.822 151.611 277.818 151.618 277.823C151.695 277.828 151.612 277.824 151.534 277.87C151.155 278.06 150.715 278.466 150.178 278.793C150.041 278.876 149.884 278.955 149.701 279.018C149.603 279.047 149.491 279.071 149.379 279.089C149.297 279.09 149.214 279.086 149.131 279.075L149.009 279.056C148.982 279.046 148.976 279.04 148.956 279.036L148.858 279.002C148.685 278.924 148.771 278.953 148.71 278.921L148.635 278.865C148.526 278.788 148.468 278.711 148.396 278.629C148.266 278.465 148.187 278.308 148.115 278.157C147.846 277.556 147.739 277.002 147.558 276.52C147.471 276.288 147.353 276.052 147.268 275.966C147.169 275.861 147.102 275.83 146.914 275.843C146.519 275.876 145.981 276.127 145.396 276.293C145.095 276.374 144.773 276.445 144.425 276.448C144.248 276.447 144.076 276.439 143.862 276.384C143.752 276.364 143.692 276.338 143.627 276.313L143.528 276.278C143.548 276.289 143.456 276.248 143.436 276.237L143.368 276.193C142.961 275.98 142.781 275.643 142.606 275.35C142.462 275.048 142.356 274.748 142.281 274.451C142.127 273.857 142.05 273.282 141.986 272.711L141.902 271.87L141.854 271.463L141.811 271.156C141.817 271.149 141.807 271.119 141.791 271.082L141.773 271.033C141.781 271.051 141.724 270.924 141.789 271.063C141.798 271.094 141.818 271.105 141.852 271.127C141.881 271.162 141.958 271.167 141.971 271.178C142.099 271.184 141.972 271.184 141.871 271.245C141.653 271.343 141.365 271.505 141.04 271.608C140.423 271.822 139.318 271.724 138.99 270.85C138.715 270.193 138.688 269.612 138.648 269.027C138.586 266.712 138.935 264.521 139.299 262.354C139.684 260.197 140.154 258.083 140.656 256.022C141.157 253.955 141.701 251.941 142.256 249.977C142.543 248.99 142.813 248.025 143.115 247.069C143.437 246.117 143.748 245.179 144.059 244.247C145.417 240.578 147.065 237.268 148.714 234.293C150.364 231.318 152.048 228.688 153.617 226.419C155.192 224.149 156.644 222.227 157.915 220.711C159.172 219.176 160.207 218.02 160.939 217.249C161.298 216.857 161.579 216.563 161.775 216.372C161.97 216.175 162.068 216.076 162.068 216.076C162.108 216.04 162.171 216.034 162.209 216.1C162.258 216.139 162.264 216.208 162.225 216.257C162.225 216.257 161.871 216.705 161.221 217.531C160.577 218.369 159.624 219.588 158.455 221.17C157.292 222.758 155.878 224.682 154.348 226.954C152.797 229.209 151.142 231.823 149.515 234.77C147.894 237.717 146.275 240.993 144.949 244.608C144.649 245.519 144.343 246.444 144.032 247.382C143.735 248.325 143.466 249.303 143.191 250.276C142.641 252.234 142.109 254.24 141.613 256.287C141.116 258.335 140.656 260.429 140.288 262.559C139.932 264.681 139.602 266.876 139.666 269.013C139.699 269.53 139.755 270.088 139.919 270.459C139.953 270.55 140.003 270.609 140.017 270.62C139.997 270.609 140.051 270.642 139.978 270.605L140.07 270.646C140.13 270.672 140.209 270.709 140.221 270.701C140.332 270.728 140.547 270.732 140.736 270.662C140.945 270.597 141.148 270.481 141.432 270.345C141.578 270.292 141.724 270.163 142.132 270.192C142.214 270.196 142.347 270.259 142.442 270.319C142.531 270.386 142.588 270.457 142.647 270.539C142.74 270.701 142.686 270.612 142.71 270.66L142.728 270.709C142.737 270.733 142.753 270.77 142.765 270.832C142.827 271.067 142.841 271.205 142.862 271.355L142.912 271.787L143.002 272.622C143.064 273.173 143.137 273.711 143.27 274.212C143.389 274.701 143.622 275.197 143.855 275.307L143.875 275.324ZM143.875 275.324C143.823 275.304 143.888 275.329 143.875 275.324Z" stroke="#333333"/>
</g>
<defs>
<clipPath id="clip0_1_47">
<rect width="210" height="210" fill="white" transform="translate(41 52)"/>
</clipPath>
</defs>
</svg>
